<?xml version="1.0" encoding="UTF-8" standalone="no"?>
<!-- Created with Inkscape (http://www.inkscape.org/) -->

<svg
   xmlns:dc="http://purl.org/dc/elements/1.1/"
   xmlns:cc="http://creativecommons.org/ns#"
   xmlns:rdf="http://www.w3.org/1999/02/22-rdf-syntax-ns#"
   xmlns:svg="http://www.w3.org/2000/svg"
   xmlns="http://www.w3.org/2000/svg"
   xmlns:xlink="http://www.w3.org/1999/xlink"
   xmlns:sodipodi="http://sodipodi.sourceforge.net/DTD/sodipodi-0.dtd"
   xmlns:inkscape="http://www.inkscape.org/namespaces/inkscape"
   width="210mm"
   height="297mm"
   viewBox="0 0 210 297"
   version="1.1"
   id="svg8"
   inkscape:version="0.92.4 5da689c313, 2019-01-14"
   sodipodi:docname="Icon.svg">
  <defs
     id="defs2">
    <clipPath
       clipPathUnits="userSpaceOnUse"
       id="clipPath1185">
      <use
         x="0"
         y="0"
         xlink:href="#g1181"
         id="use1187"
         width="100%"
         height="100%" />
    </clipPath>
  </defs>
  <sodipodi:namedview
     id="base"
     pagecolor="#ffffff"
     bordercolor="#666666"
     borderopacity="1.0"
     inkscape:pageopacity="0.0"
     inkscape:pageshadow="2"
     inkscape:zoom="0.49497475"
     inkscape:cx="-68.092666"
     inkscape:cy="383.49253"
     inkscape:document-units="mm"
     inkscape:current-layer="g1159"
     showgrid="false"
     showguides="true"
     inkscape:window-width="2560"
     inkscape:window-height="1390"
     inkscape:window-x="2560"
     inkscape:window-y="166"
     inkscape:window-maximized="1">
    <inkscape:grid
       type="xygrid"
       id="grid1111" />
  </sodipodi:namedview>
  <metadata
     id="metadata5">
    <rdf:RDF>
      <cc:Work
         rdf:about="">
        <dc:format>image/svg+xml</dc:format>
        <dc:type
           rdf:resource="http://purl.org/dc/dcmitype/StillImage" />
        <dc:title></dc:title>
      </cc:Work>
    </rdf:RDF>
  </metadata>
  <g
     inkscape:groupmode="layer"
     id="layer2"
     inkscape:label="Ebene 2">
    <rect
       style="fill:#000000;fill-opacity:0;stroke-width:0.26458332;paint-order:stroke markers fill"
       id="rect1010"
       width="202.85756"
       height="202.85756"
       x="4.2763133"
       y="43.628487"
       ry="42.673508" />
    <rect
       style="fill:#000000;fill-opacity:0;stroke-width:0.26458332;paint-order:stroke markers fill"
       id="rect1098"
       width="41.694012"
       height="79.985291"
       x="20.312483"
       y="60.733734" />
    <rect
       style="fill:#000000;fill-opacity:0;stroke-width:0.26458332;paint-order:stroke markers fill"
       id="rect1100"
       width="101.56242"
       height="104.76965"
       x="-41.694046"
       y="5.1416759" />
    <rect
       style="fill:#000000;fill-opacity:0;stroke-width:0.26458332;paint-order:stroke markers fill"
       id="rect1102"
       width="181.74329"
       height="181.74329"
       x="4.2763128"
       y="43.628487" />
  </g>
  <g
     inkscape:label="Ebene 1"
     inkscape:groupmode="layer"
     id="layer1">
    <g
       id="g1159"
       transform="matrix(30.834059,0,0,30.834059,8.7967074,10.800009)"
       style="stroke-width:0.03243167">
      <g
         id="g1183"
         clip-path="url(#clipPath1185)"
         inkscape:export-xdpi="66.410004"
         inkscape:export-ydpi="66.410004">
        <g
           inkscape:label="Clip"
           id="g1181">
          <rect
             style="fill:#006680;fill-opacity:1;stroke-width:0.00858088;paint-order:stroke markers fill"
             id="rect1108"
             width="6.350749"
             height="6.3498507"
             x="-0.00074895221"
             y="0.66666669"
             ry="0" />
        </g>
      </g>
      <g
         style="fill:#eee8d5;fill-opacity:1;stroke-width:0.71046221"
         transform="matrix(0.04921174,0,0,0.04921174,0.4866023,1.5368145)"
         id="g876">
        <g
           style="fill:#eee8d5;fill-opacity:1;stroke-width:0.71046221"
           id="g819">
	<path
   style="fill:#eee8d5;fill-opacity:1;stroke-width:0.71046221"
   inkscape:connector-curvature="0"
   d="m 51.991,7.982 c -14.628,0 -21.169,-7.566 -21.232,-7.64 -0.38,-0.456 -1.156,-0.456 -1.536,0 -0.064,0.076 -6.537,7.64 -21.232,7.64 -0.552,0 -1,0.448 -1,1 v 19.085 c 0,10.433 4.69,20.348 12.546,26.521 3.167,2.489 6.588,4.29 10.169,5.352 0.093,0.028 0.189,0.042 0.285,0.042 0.096,0 0.191,-0.014 0.285,-0.042 3.581,-1.063 7.002,-2.863 10.169,-5.352 C 48.301,48.414 52.991,38.5 52.991,28.067 V 8.982 c 0,-0.552 -0.448,-1 -1,-1 z m -1,20.085 c 0,9.824 -4.404,19.151 -11.782,24.949 -2.883,2.266 -5.983,3.92 -9.218,4.921 -3.235,-1 -6.335,-2.655 -9.218,-4.921 C 13.395,47.219 8.991,37.891 8.991,28.067 V 9.971 c 12.242,-0.272 18.865,-5.497 21,-7.545 2.135,2.049 8.758,7.273 21,7.545 z"
   id="path815" />

	<path
   style="fill:#eee8d5;fill-opacity:1;stroke-width:0.71046221"
   inkscape:connector-curvature="0"
   d="m 29.429,7.986 c -3.015,2.049 -8.163,4.689 -15.564,5.633 -0.5,0.064 -0.874,0.489 -0.874,0.992 v 13.457 c 0,8.607 3.833,16.758 10.254,21.804 2.022,1.589 4.169,2.835 6.381,3.703 0.118,0.046 0.241,0.069 0.365,0.069 0.124,0 0.248,-0.023 0.365,-0.069 2.21,-0.867 4.358,-2.113 6.382,-3.703 6.42,-5.046 10.253,-13.197 10.253,-21.804 V 14.611 c 0,-0.503 -0.374,-0.928 -0.874,-0.992 -7.401,-0.944 -12.549,-3.584 -15.564,-5.633 -0.339,-0.231 -0.785,-0.231 -1.124,0 z"
   id="path817" />

</g>
        <g
           style="fill:#eee8d5;fill-opacity:1;stroke-width:0.71046221"
           id="g821">
</g>
        <g
           style="fill:#eee8d5;fill-opacity:1;stroke-width:0.71046221"
           id="g823">
</g>
        <g
           style="fill:#eee8d5;fill-opacity:1;stroke-width:0.71046221"
           id="g825">
</g>
        <g
           style="fill:#eee8d5;fill-opacity:1;stroke-width:0.71046221"
           id="g827">
</g>
        <g
           style="fill:#eee8d5;fill-opacity:1;stroke-width:0.71046221"
           id="g829">
</g>
        <g
           style="fill:#eee8d5;fill-opacity:1;stroke-width:0.71046221"
           id="g831">
</g>
        <g
           style="fill:#eee8d5;fill-opacity:1;stroke-width:0.71046221"
           id="g833">
</g>
        <g
           style="fill:#eee8d5;fill-opacity:1;stroke-width:0.71046221"
           id="g835">
</g>
        <g
           style="fill:#eee8d5;fill-opacity:1;stroke-width:0.71046221"
           id="g837">
</g>
        <g
           style="fill:#eee8d5;fill-opacity:1;stroke-width:0.71046221"
           id="g839">
</g>
        <g
           style="fill:#eee8d5;fill-opacity:1;stroke-width:0.71046221"
           id="g841">
</g>
        <g
           style="fill:#eee8d5;fill-opacity:1;stroke-width:0.71046221"
           id="g843">
</g>
        <g
           style="fill:#eee8d5;fill-opacity:1;stroke-width:0.71046221"
           id="g845">
</g>
        <g
           style="fill:#eee8d5;fill-opacity:1;stroke-width:0.71046221"
           id="g847">
</g>
        <g
           style="fill:#eee8d5;fill-opacity:1;stroke-width:0.71046221"
           id="g849">
</g>
      </g>
      <g
         style="fill:#eee8d5;fill-opacity:1;stroke-width:0.88346243"
         transform="matrix(0.00442817,0,0,0.00442817,3.1331782,3.8844397)"
         id="g957">
        <g
           style="fill:#eee8d5;fill-opacity:1;stroke-width:0.88346243"
           id="g894">
	<g
   style="fill:#eee8d5;fill-opacity:1;stroke-width:0.88346243"
   id="g892">
		<g
   style="fill:#eee8d5;fill-opacity:1;stroke-width:0.88346243"
   id="g890">
			<path
   style="fill:#eee8d5;fill-opacity:1;stroke-width:0.88346243"
   inkscape:connector-curvature="0"
   d="m 422.863,451.174 c -0.147,0.147 -0.293,0.293 -0.437,0.436 -0.144,0.144 -0.285,0.285 -0.423,0.423 0.304,-0.303 0.588,-0.587 0.86,-0.859 z"
   id="path878" />

			<path
   style="fill:#eee8d5;fill-opacity:1;stroke-width:0.88346243"
   inkscape:connector-curvature="0"
   d="m 426.138,447.898 c -0.105,0.105 -0.217,0.217 -0.334,0.334 -0.117,0.117 -0.24,0.24 -0.367,0.367 0.275,-0.274 0.499,-0.498 0.701,-0.701 z"
   id="path880" />

			<path
   style="fill:#eee8d5;fill-opacity:1;stroke-width:0.88346243"
   inkscape:connector-curvature="0"
   d="m 427.106,446.93 c -0.016,0.016 -0.043,0.043 -0.081,0.081 0.088,-0.088 0.116,-0.116 0.081,-0.081 z"
   id="path882" />

			<path
   style="fill:#eee8d5;fill-opacity:1;stroke-width:0.88346243"
   inkscape:connector-curvature="0"
   d="m 420.873,453.164 c -0.11,0.11 -0.214,0.214 -0.311,0.311 -0.097,0.097 -0.187,0.187 -0.269,0.269 0.196,-0.196 0.393,-0.394 0.58,-0.58 z"
   id="path884" />

			<path
   style="fill:#eee8d5;fill-opacity:1;stroke-width:0.88346243"
   inkscape:connector-curvature="0"
   d="m 471.539,227.517 v 8.251 h -48.783 c -3.762,-31.193 -16.097,-59.783 -34.586,-83.329 l 34.545,-34.545 5.836,5.836 c 18.875,18.875 47.498,-9.726 28.61,-28.61 -1.057,-1.057 -2.013,-2.013 -2.881,-2.881 -0.115,-0.115 -0.22,-0.22 -0.331,-0.331 -0.102,-0.102 -0.238,-0.238 -0.392,-0.392 0.065,0.065 0.132,0.132 0.189,0.189 -0.154,-0.154 -0.306,-0.306 -0.454,-0.454 -0.041,-0.041 -0.086,-0.086 -0.126,-0.126 -0.118,-0.118 -0.236,-0.236 -0.35,-0.35 -1.057,-1.057 -2.754,-2.754 -5.3,-5.3 -0.376,-0.376 -0.568,-0.568 -0.596,-0.596 -5.593,-5.593 -14.954,-14.954 -30.04,-30.04 -18.9,-18.9 -47.538,9.685 -28.61,28.61 l 5.836,5.836 -34.545,34.545 C 336.015,105.34 307.424,93.005 276.232,89.244 V 40.461 h 8.251 c 26.733,0 26.761,-40.461 0,-40.461 h -56.964 c -26.733,0 -26.761,40.461 0,40.461 h 8.251 v 48.783 c -31.193,3.762 -59.783,16.097 -83.329,34.586 l -34.546,-34.545 5.836,-5.836 c 18.905,-18.901 -9.686,-47.533 -28.61,-28.61 -2.238,2.238 -4.03,4.03 -5.456,5.456 -4.168,4.168 -14.111,14.111 -34.825,34.825 -18.905,18.902 9.763,47.459 28.61,28.61 l 5.836,-5.836 34.545,34.545 c -18.49,23.546 -30.825,52.137 -34.586,83.329 H 40.461 v -8.251 C 40.461,200.784 0,200.756 0,227.517 v 56.964 c 0,26.733 40.461,26.761 40.461,0 v -8.251 h 48.783 c 3.762,31.193 16.097,59.783 34.586,83.329 l -34.545,34.545 -5.836,-5.836 c -18.901,-18.899 -47.539,9.685 -28.61,28.61 1.057,1.057 2.013,2.013 2.881,2.881 5.376,5.376 7.266,7.266 7.36,7.36 5.593,5.593 14.954,14.954 30.04,30.04 18.9,18.9 47.541,-9.682 28.61,-28.61 l -5.836,-5.836 34.545,-34.545 c 23.546,18.49 52.136,30.825 83.329,34.586 v 48.783 h -8.251 c -26.733,0 -26.761,40.461 0,40.461 h 56.964 c 26.733,0 26.761,-40.461 0,-40.461 h -8.251 v -48.783 c 31.193,-3.762 59.783,-16.097 83.329,-34.586 l 34.545,34.545 -5.836,5.836 c -18.905,18.902 9.763,47.457 28.61,28.61 1.073,-1.073 2.043,-2.043 2.921,-2.921 -0.137,0.137 0.071,-0.071 0.762,-0.762 0.268,-0.268 0.611,-0.611 1.038,-1.038 0.249,-0.249 0.519,-0.519 0.827,-0.827 0.867,-0.867 1.986,-1.986 3.378,-3.378 0.409,-0.409 0.843,-0.843 1.302,-1.302 5.591,-5.591 14.955,-14.955 30.052,-30.052 18.905,-18.901 -9.686,-47.533 -28.61,-28.61 l -5.836,5.836 -34.545,-34.545 c 18.49,-23.546 30.825,-52.136 34.586,-83.329 h 48.783 v 8.251 c 0,26.733 40.461,26.761 40.461,0 V 227.518 C 512,200.784 471.539,200.757 471.539,227.517 Z M 219.572,268.96 c -24.636,0 -44.607,-19.972 -44.607,-44.607 0,-24.635 19.972,-44.607 44.607,-44.607 24.635,0 44.607,19.972 44.607,44.607 0,24.635 -19.971,44.607 -44.607,44.607 z m 72.856,50.975 c -15.192,0 -27.507,-12.315 -27.507,-27.507 0,-15.192 12.315,-27.507 27.507,-27.507 15.192,0 27.507,12.315 27.507,27.507 0,15.192 -12.315,27.507 -27.507,27.507 z"
   id="path886" />

			<path
   style="fill:#eee8d5;fill-opacity:1;stroke-width:0.88346243"
   inkscape:connector-curvature="0"
   d="m 421.221,452.816 c 0.273,-0.273 0.532,-0.532 0.783,-0.783 -0.138,0.138 -0.273,0.273 -0.404,0.404 -0.131,0.131 -0.258,0.258 -0.379,0.379 z"
   id="path888" />

		</g>

	</g>

</g>
        <g
           style="fill:#eee8d5;fill-opacity:1;stroke-width:0.88346243"
           id="g896">
</g>
        <g
           style="fill:#eee8d5;fill-opacity:1;stroke-width:0.88346243"
           id="g898">
</g>
        <g
           style="fill:#eee8d5;fill-opacity:1;stroke-width:0.88346243"
           id="g900">
</g>
        <g
           style="fill:#eee8d5;fill-opacity:1;stroke-width:0.88346243"
           id="g902">
</g>
        <g
           style="fill:#eee8d5;fill-opacity:1;stroke-width:0.88346243"
           id="g904">
</g>
        <g
           style="fill:#eee8d5;fill-opacity:1;stroke-width:0.88346243"
           id="g906">
</g>
        <g
           style="fill:#eee8d5;fill-opacity:1;stroke-width:0.88346243"
           id="g908">
</g>
        <g
           style="fill:#eee8d5;fill-opacity:1;stroke-width:0.88346243"
           id="g910">
</g>
        <g
           style="fill:#eee8d5;fill-opacity:1;stroke-width:0.88346243"
           id="g912">
</g>
        <g
           style="fill:#eee8d5;fill-opacity:1;stroke-width:0.88346243"
           id="g914">
</g>
        <g
           style="fill:#eee8d5;fill-opacity:1;stroke-width:0.88346243"
           id="g916">
</g>
        <g
           style="fill:#eee8d5;fill-opacity:1;stroke-width:0.88346243"
           id="g918">
</g>
        <g
           style="fill:#eee8d5;fill-opacity:1;stroke-width:0.88346243"
           id="g920">
</g>
        <g
           style="fill:#eee8d5;fill-opacity:1;stroke-width:0.88346243"
           id="g922">
</g>
        <g
           style="fill:#eee8d5;fill-opacity:1;stroke-width:0.88346243"
           id="g924">
</g>
      </g>
    </g>
    <rect
       style="fill:#000000;fill-opacity:0;stroke-width:0.26458332;paint-order:stroke markers fill"
       id="rect1104"
       width="223.7619"
       height="149.3006"
       x="0.37797621"
       y="27.880953" />
  </g>
</svg>
