<?xml version="1.0" encoding="UTF-8" standalone="no"?>
<!-- Generator: Adobe Illustrator 24.0.1, SVG Export Plug-In . SVG Version: 6.00 Build 0)  -->

<svg
   xmlns:dc="http://purl.org/dc/elements/1.1/"
   xmlns:cc="http://creativecommons.org/ns#"
   xmlns:rdf="http://www.w3.org/1999/02/22-rdf-syntax-ns#"
   xmlns:svg="http://www.w3.org/2000/svg"
   xmlns="http://www.w3.org/2000/svg"
   xmlns:sodipodi="http://sodipodi.sourceforge.net/DTD/sodipodi-0.dtd"
   xmlns:inkscape="http://www.inkscape.org/namespaces/inkscape"
   version="1.1"
   x="0px"
   y="0px"
   viewBox="0 0 1242 2208"
   style="enable-background:new 0 0 1242 2208;"
   xml:space="preserve"
   id="svg135"
   sodipodi:docname="Vorschlag_UI.svg"
   inkscape:version="0.92.4 5da689c313, 2019-01-14"><metadata
   id="metadata141"><rdf:RDF><cc:Work
       rdf:about=""><dc:format>image/svg+xml</dc:format><dc:type
         rdf:resource="http://purl.org/dc/dcmitype/StillImage" /><dc:title></dc:title></cc:Work></rdf:RDF></metadata><defs
   id="defs139" /><sodipodi:namedview
   pagecolor="#ffffff"
   bordercolor="#666666"
   borderopacity="1"
   objecttolerance="10"
   gridtolerance="10"
   guidetolerance="10"
   inkscape:pageopacity="0"
   inkscape:pageshadow="2"
   inkscape:window-width="2560"
   inkscape:window-height="1390"
   id="namedview137"
   showgrid="false"
   showguides="false"
   inkscape:zoom="0.42753623"
   inkscape:cx="-489.63525"
   inkscape:cy="1153.2533"
   inkscape:window-x="2560"
   inkscape:window-y="166"
   inkscape:window-maximized="1"
   inkscape:current-layer="Ebene_3" />
<style
   type="text/css"
   id="style2">
	.st0{fill:#EFEFEF;}
	.st1{fill:#4AB9B2;}
	.st2{fill:#283477;}
	.st3{fill:#FFDB84;}
	.st4{fill:#E83F7F;}
	.st5{fill:#F5A65B;}
	.st6{fill:#6F7DBB;}
	.st7{fill:#FFFFFF;}
	.st8{fill:#B72E6C;}
	.st9{fill:#41A59B;}
	.st10{font-family:'OpenSans';}
	.st11{font-size:66.5967px;}
</style>
<g
   inkscape:groupmode="layer"
   id="layer2"
   inkscape:label="Layer 1"><g
     style="enable-background:new 0 0 1242 2208"
     id="Ebene_5"
     transform="translate(1488.3889,-256.95567)">
	<rect
   x="-4023.2881"
   class="st0"
   width="1242"
   height="2208"
   id="rect4"
   style="fill:#586e75;fill-opacity:0.47872341"
   y="266.64407" />
</g><rect
     style="enable-background:new 0 0 1242 2208;fill:#586d75;fill-opacity:0.47843137;stroke-width:0.99316323"
     id="rect4655"
     width="1120.3729"
     height="2200.9832"
     x="-1212.8813"
     y="2.3389797" /><rect
     style="enable-background:new 0 0 1242 2208;fill:#586d75;fill-opacity:0.47843137"
     id="rect4739"
     width="1250.3566"
     height="2221.2312"
     x="0"
     y="0" /></g><g
   id="Ebene_1">
	
		<rect
   x="-2837.44"
   y="763.16"
   transform="matrix(6.123234e-17 -1 1 6.123234e-17 -3600.592 -1921.5842)"
   class="st1"
   width="152.7"
   height="152.7"
   id="rect7" />
	
		<rect
   x="-2837.44"
   y="457.76"
   transform="matrix(6.123234e-17 -1 1 6.123234e-17 -3295.2 -2226.9763)"
   class="st2"
   width="152.7"
   height="152.7"
   id="rect9" />
	
		<rect
   x="-2837.44"
   y="305.07"
   transform="matrix(6.123234e-17 -1 1 6.123234e-17 -3142.5039 -2379.6724)"
   class="st3"
   width="152.7"
   height="152.7"
   id="rect11" />
	
		<rect
   x="-2837.44"
   y="-0.32"
   transform="matrix(6.123234e-17 -1 1 6.123234e-17 -2837.1118 -2685.0645)"
   class="st4"
   width="152.7"
   height="152.7"
   id="rect13" />
	
		<rect
   x="-2837.44"
   y="152.37"
   transform="matrix(6.123234e-17 -1 1 6.123234e-17 -2989.8079 -2532.3684)"
   class="st5"
   width="152.7"
   height="152.7"
   id="rect15"
   style="fill:#b58900;fill-opacity:1" />
	
		<rect
   x="-2837.44"
   y="610.46"
   transform="matrix(6.123234e-17 -1 1 6.123234e-17 -3447.896 -2074.2803)"
   class="st6"
   width="152.7"
   height="152.7"
   id="rect17" />
	<path
   class="st6"
   d="m -2002.95,1983.22 h -211.84 c -18.61,0 -33.69,-15.08 -33.69,-33.69 v -211.84 c 0,-18.61 15.08,-33.69 33.69,-33.69 h 211.84 c 18.61,0 33.69,15.08 33.69,33.69 v 211.84 c 0,18.61 -15.08,33.69 -33.69,33.69 z"
   id="path19"
   style="fill:#006680;fill-opacity:1"
   inkscape:connector-curvature="0" />
	<path
   class="st6"
   d="m -1590.69,1970.74 h -210.88 c -18.61,0 -33.69,-15.08 -33.69,-33.69 v -210.88 c 0,-18.61 15.08,-33.69 33.69,-33.69 h 210.88 c 18.61,0 33.69,15.08 33.69,33.69 v 210.88 c 0,18.61 -15.08,33.69 -33.69,33.69 z"
   id="path21"
   inkscape:connector-curvature="0"
   style="fill:#006680;fill-opacity:1" />
	<path
   class="st6"
   d="m -2006.69,1626.921 h -204.35 c -18.61,0 -33.69,-15.08 -33.69,-33.69 v -204.35 c 0,-18.61 15.08,-33.69 33.69,-33.69 h 204.35 c 18.61,0 33.69,15.08 33.69,33.69 v 204.35 c 0,18.6 -15.08,33.69 -33.69,33.69 z"
   id="path23"
   inkscape:connector-curvature="0"
   style="fill:#006680;fill-opacity:1" />
	<path
   class="st6"
   d="m -1803.31,1366.52 h 210.35 c 18.61,0 33.69,15.08 33.69,33.69 v 210.35 c 0,18.61 -15.08,33.69 -33.69,33.69 h -210.35 c -18.61,0 -33.69,-15.08 -33.69,-33.69 v -210.35 c 0,-18.61 15.08,-33.69 33.69,-33.69 z"
   id="path25"
   inkscape:connector-curvature="0"
   style="fill:#006680;fill-opacity:1" />
	<rect
   x="-2366.322"
   y="229"
   class="st5"
   width="931.32202"
   height="773.55933"
   id="rect27"
   style="fill:#073642;stroke-width:0.89728391;fill-opacity:1" />
	<rect
   x="-1109.4407"
   y="229"
   class="st1"
   width="936.88135"
   height="1664"
   id="rect29"
   style="fill:#073642;fill-opacity:1;stroke-width:1.05110085" />
	<path
   class="st7"
   d="m -253.18339,1129.191 27.63,-27.63 -27.63,-27.63 c -2.78,-2.78 -2.78,-7.26 0,-10.04 2.78,-2.78 7.26,-2.78 10.04,0 l 32.68,32.68 c 2.78,2.78 2.78,7.26 0,10.04 l -32.68,32.68 c -2.78,2.78 -7.26,2.78 -10.04,0 -2.7,-2.76 -2.78,-7.32 0,-10.1 z"
   id="path31"
   style="fill:#eee8d5;fill-opacity:1"
   inkscape:connector-curvature="0" />
	<path
   class="st7"
   d="m -1014.4709,1075.6 -31.3546,28.38 31.3546,28.38 c 3.1486,2.85 3.1486,7.46 0,10.31 -3.1488,2.85 -8.242,2.85 -11.3907,0 l -37.0885,-33.57 c -3.1488,-2.85 -3.1488,-7.46 0,-10.31 l 37.0885,-33.57 c 3.1487,-2.85 8.2419,-2.85 11.3907,0 3.0714,2.85 3.1486,7.53 0,10.38 z"
   id="path33"
   style="fill:#eee8d5;fill-opacity:1;stroke-width:1.05110085"
   inkscape:connector-curvature="0" />
	<rect
   x="-1110.0254"
   y="1754"
   class="st2"
   width="937.46606"
   height="211.50847"
   id="rect35"
   style="fill:#327f6b;fill-opacity:1;stroke-width:1.29698908" />
	<rect
   x="-2371"
   y="131"
   class="st4"
   width="936"
   height="42"
   id="rect37" />
	<rect
   x="-2371"
   y="131"
   class="st8"
   width="731"
   height="42"
   id="rect39" />
	<rect
   x="-1109"
   y="131"
   class="st4"
   width="936"
   height="42"
   id="rect41" />
	<rect
   x="-1109"
   y="131"
   class="st8"
   width="731"
   height="42"
   id="rect43" />
	<rect
   x="-2392"
   y="2058"
   class="st6"
   width="978"
   height="94"
   id="rect45"
   style="fill:#2aa198;fill-opacity:1" />
	<rect
   x="-2312"
   y="2073"
   class="st5"
   width="64"
   height="64"
   id="rect47"
   style="fill:#eee8d5;fill-opacity:1" />
	<rect
   x="-1829"
   y="2073"
   class="st5"
   width="64"
   height="64"
   id="rect49"
   style="fill:#eee8d5;fill-opacity:1" />
	<rect
   x="-2230"
   y="2097"
   class="st5"
   width="284"
   height="16"
   id="rect51"
   style="fill:#eee8d5;fill-opacity:1" />
	<rect
   x="-1744"
   y="2097"
   class="st5"
   width="284"
   height="16"
   id="rect53"
   style="fill:#eee8d5;fill-opacity:1" />
	<rect
   x="-1130"
   y="2056"
   class="st6"
   width="978"
   height="94"
   id="rect55"
   style="fill:#2aa198;fill-opacity:1" />
	<rect
   x="-1050"
   y="2071"
   class="st5"
   width="64"
   height="64"
   id="rect57"
   style="fill:#eee8d5;fill-opacity:1" />
	<rect
   x="-567"
   y="2071"
   class="st5"
   width="64"
   height="64"
   id="rect59"
   style="fill:#eee8d5;fill-opacity:1" />
	<rect
   x="-968"
   y="2095"
   class="st5"
   width="284"
   height="16"
   id="rect61"
   style="fill:#eee8d5;fill-opacity:1" />
	<rect
   x="-482"
   y="2095"
   class="st5"
   width="284"
   height="16"
   id="rect63"
   style="fill:#eee8d5;fill-opacity:1" />
<rect
   style="fill:#327f6b;fill-opacity:1;stroke-width:0.9414528"
   id="rect4651"
   width="934.8645"
   height="237.10164"
   x="-2371"
   y="1042.322" /><rect
   x="-1054.9587"
   y="1779.0797"
   class="st5"
   width="816.55927"
   height="16"
   id="rect61-3"
   style="fill:#eee8d5;fill-opacity:1;stroke-width:1.69564402" /><rect
   x="-1054.2666"
   y="1848.5441"
   class="st5"
   width="816.55927"
   height="16"
   id="rect61-3-6"
   style="fill:#eee8d5;fill-opacity:1;stroke-width:1.69564402" /><rect
   x="-1054.6127"
   y="1816.2927"
   class="st5"
   width="816.55927"
   height="16"
   id="rect61-3-2"
   style="fill:#eee8d5;fill-opacity:1;stroke-width:1.69564402" /><rect
   x="-1056.6127"
   y="1920.4891"
   class="st5"
   width="816.55927"
   height="16"
   id="rect61-3-9"
   style="fill:#eee8d5;fill-opacity:1;stroke-width:1.69564402" /><rect
   x="-1055.0935"
   y="1884.9301"
   class="st5"
   width="816.55927"
   height="16"
   id="rect61-3-1"
   style="fill:#eee8d5;fill-opacity:1;stroke-width:1.69564402" /><rect
   x="-2318.5466"
   y="1107.5919"
   class="st5"
   width="816.55927"
   height="16"
   id="rect61-3-1-2"
   style="fill:#eee8d5;fill-opacity:1;stroke-width:1.69564402" /><rect
   x="-2319.3735"
   y="1146.4587"
   class="st5"
   width="816.55927"
   height="16"
   id="rect61-3-1-7"
   style="fill:#eee8d5;fill-opacity:1;stroke-width:1.69564402" /><rect
   x="-2319.3733"
   y="1186.9797"
   class="st5"
   width="816.55927"
   height="16"
   id="rect61-3-1-0"
   style="fill:#eee8d5;fill-opacity:1;stroke-width:1.69564402" /><rect
   x="-2317.7195"
   y="1232.4622"
   class="st5"
   width="816.55927"
   height="16"
   id="rect61-3-1-9"
   style="fill:#eee8d5;fill-opacity:1;stroke-width:1.69564402" /><rect
   x="-2318.5466"
   y="1072.8599"
   class="st5"
   width="816.55927"
   height="16"
   id="rect61-3-1-3"
   style="fill:#eee8d5;fill-opacity:1;stroke-width:1.69564402" /><rect
   style="fill:#586d75;fill-opacity:0.47843137;stroke-width:1.00679505"
   id="rect4835"
   width="1299.9739"
   height="2212.9326"
   x="1290.0504"
   y="-4.9326196"
   ry="0" /></g>

<g
   id="Ebene_2">
	<path
   class="st1"
   d="M-1861.06,759.81c0.07,1.34-0.12,2.67-0.57,3.93l-8.97,24.98l-23.13,64.43c-3.13,8.71-15.44,8.71-18.56,0   l-23.13-64.43l-8.97-24.98c-0.45-1.26-0.64-2.6-0.57-3.93c1.14-22.18,19.48-39.81,41.94-39.81S-1862.2,737.63-1861.06,759.81z"
   id="path66"
   style="fill:#eee8d5;fill-opacity:1" />
	<path
   class="st6"
   d="M521.05,1893.22H309.21c-18.61,0-33.69-15.08-33.69-33.69v-211.84c0-18.61,15.08-33.69,33.69-33.69h211.84   c18.61,0,33.69,15.08,33.69,33.69v211.84C554.74,1878.14,539.66,1893.22,521.05,1893.22z"
   id="path68" />
	<path
   class="st6"
   d="M931.31,1892.74H720.43c-18.61,0-33.69-15.08-33.69-33.69v-210.88c0-18.61,15.08-33.69,33.69-33.69h210.88   c18.61,0,33.69,15.08,33.69,33.69v210.88C965,1877.66,949.92,1892.74,931.31,1892.74z"
   id="path70"
   style="fill:#006680;fill-opacity:1" />
	<path
   class="st6"
   d="M517.31,1551.26H312.96c-18.61,0-33.69-15.08-33.69-33.69v-204.35c0-18.61,15.08-33.69,33.69-33.69h204.35   c18.61,0,33.69,15.08,33.69,33.69v204.35C551,1536.17,535.92,1551.26,517.31,1551.26z"
   id="path72" />
	<path
   class="st6"
   d="M720.69,1276.52h210.35c18.61,0,33.69,15.08,33.69,33.69v210.35c0,18.61-15.08,33.69-33.69,33.69H720.69   c-18.61,0-33.69-15.08-33.69-33.69v-210.35C687,1291.6,702.08,1276.52,720.69,1276.52z"
   id="path74"
   style="fill:#006680;fill-opacity:1" />
	<rect
   x="153"
   y="229"
   class="st5"
   width="936"
   height="956"
   id="rect76"
   style="fill:#073642;fill-opacity:1" />
	<rect
   x="153"
   y="131"
   class="st4"
   width="936"
   height="42"
   id="rect78" />
	<rect
   x="153"
   y="131"
   class="st8"
   width="731"
   height="42"
   id="rect80" />
	
	<rect
   x="212"
   y="1983"
   class="st5"
   width="64"
   height="64"
   id="rect84" />
	<rect
   x="695"
   y="1983"
   class="st5"
   width="64"
   height="64"
   id="rect86" />
	<rect
   x="294"
   y="2007"
   class="st5"
   width="284"
   height="16"
   id="rect88" />
	
	<path
   class="st1"
   d="M662.94,759.81c0.07,1.34-0.12,2.67-0.57,3.93l-8.97,24.98l-23.13,64.43c-3.13,8.71-15.44,8.71-18.56,0   l-23.13-64.43l-8.97-24.98c-0.45-1.26-0.64-2.6-0.57-3.93C580.2,737.63,598.54,720,621,720S661.8,737.63,662.94,759.81z"
   id="path92" />
</g>
<g
   id="Ebene_3">
	<rect
   class="st1"
   width="922"
   height="2208"
   id="rect95"
   style="fill:#2aa198;fill-opacity:1" />
	<path
   class="st7"
   d="M903.29,69.85l-1.44,1.44c-1.5,1.5-3.94,1.5-5.44,0l-34.71-34.71c-1.5-1.5-1.5-3.94,0-5.44l1.44-1.44   c1.5-1.5,3.94-1.5,5.44,0l34.71,34.71C904.8,65.91,904.8,68.35,903.29,69.85z"
   id="path97" />
	<path
   class="st7"
   d="M863.15,71.29l-1.44-1.44c-1.5-1.5-1.5-3.94,0-5.44l34.71-34.71c1.5-1.5,3.94-1.5,5.44,0l1.44,1.44   c1.5,1.5,1.5,3.94,0,5.44l-34.71,34.71C867.09,72.8,864.65,72.8,863.15,71.29z"
   id="path99" />
	<rect
   y="516"
   class="st9"
   width="922"
   height="145"
   id="rect101"
   style="fill:#492f00;fill-opacity:0.29803923" />
	<rect
   y="806"
   class="st9"
   width="922"
   height="145"
   id="rect103"
   style="fill:#327f6b;fill-opacity:1" />
	<rect
   y="1096"
   class="st9"
   width="922"
   height="145"
   id="rect105"
   style="fill:#327f6b;fill-opacity:1" />
</g>
<g
   id="Ebene_4">
	<text
   transform="matrix(1 0 0 1 251.75 1195.7422)"
   class="st7 st10 st11"
   id="text108">Einstellungen</text>

	<text
   transform="matrix(1 0 0 1 196.2003 1053.28)"
   class="st7 st10 st11"
   id="text110">Gespielte Partien</text>

	<text
   transform="matrix(1 0 0 1 254.2539 902.7422)"
   class="st7 st10 st11"
   id="text112">Lorem Ipsum</text>

	<text
   transform="matrix(1 0 0 1 234.1094 763.7422)"
   class="st7 st10 st11"
   id="text114">Offene Partien</text>

	<text
   transform="matrix(1 0 0 1 232.4346 619.7422)"
   class="st7 st10 st11"
   id="text116">Gegner Finden</text>

	<path
   class="st6"
   d="M2289.9,1080H1476.1c-7.24,0-13.1-5.87-13.1-13.1V951.1c0-7.24,5.87-13.1,13.1-13.1h813.79   c7.24,0,13.1,5.87,13.1,13.1v115.79C2303,1074.13,2297.13,1080,2289.9,1080z"
   id="path118"
   style="fill:#2aa198;fill-opacity:1" />
	<rect
   x="1521"
   y="1002"
   class="st5"
   width="724"
   height="16"
   id="rect120"
   style="fill:#eee8d5;fill-opacity:1" />
	<path
   class="st6"
   d="M1963.9,1226H1802.1c-7.24,0-13.1-5.87-13.1-13.1v-57.79c0-7.24,5.87-13.1,13.1-13.1h161.79   c7.24,0,13.1,5.87,13.1,13.1v57.79C1977,1220.13,1971.13,1226,1963.9,1226z"
   id="path122"
   style="fill:#2aa198;fill-opacity:1" />
	<rect
   x="1808.28"
   y="1178"
   class="st5"
   width="149.44"
   height="12"
   id="rect124"
   style="fill:#eee8d5;fill-opacity:1" />
	<rect
   x="1521"
   y="335"
   class="st5"
   width="724"
   height="16"
   id="rect126"
   style="fill:#073642;fill-opacity:1" />
	<rect
   x="1599"
   y="381"
   class="st5"
   width="568"
   height="16"
   id="rect128"
   style="fill:#073642;fill-opacity:1" />
	<rect
   x="1561"
   y="427"
   class="st5"
   width="644"
   height="16"
   id="rect130"
   style="fill:#073642;fill-opacity:1" />
	<rect
   x="1521"
   y="891"
   class="st5"
   width="309"
   height="16"
   id="rect132"
   style="fill:#073642;fill-opacity:1" />
</g>
<g
   inkscape:groupmode="layer"
   id="layer3"
   inkscape:label="Layer 2" /></svg>